<?xml version="1.0" standalone="no"?>
<!DOCTYPE svg PUBLIC "-//W3C//DTD SVG 20010904//EN"
 "http://www.w3.org/TR/2001/REC-SVG-20010904/DTD/svg10.dtd">
<svg version="1.0" xmlns="http://www.w3.org/2000/svg"
 width="400.000000pt" height="400.000000pt" viewBox="0 0 400.000000 400.000000"
 preserveAspectRatio="xMidYMid meet">

<g transform="translate(0.000000,400.000000) scale(0.100000,-0.100000)"
fill="#000000" stroke="none">
<path d="M2477 3640 c-110 -18 -217 -51 -232 -73 -19 -28 -19 -57 1 -85 19
-28 47 -28 149 -2 311 79 634 -10 859 -238 108 -110 175 -224 223 -379 23 -78
26 -104 26 -228 0 -156 -17 -237 -73 -361 -63 -139 -178 -277 -305 -364 -194
-133 -477 -186 -708 -131 -311 74 -560 305 -647 601 -31 105 -75 136 -131 92
-29 -24 -29 -57 0 -147 51 -158 128 -282 251 -406 98 -98 149 -135 269 -194
345 -171 744 -141 1060 79 133 93 280 274 348 431 59 134 77 233 77 400 -1
129 -5 164 -27 249 -95 357 -379 638 -741 733 -103 27 -302 38 -399 23z"/>
<path d="M1630 3513 c-19 -24 -21 -38 -18 -102 3 -62 7 -76 27 -92 28 -23 59
-24 89 -3 20 14 22 24 22 103 0 72 -3 91 -18 104 -29 27 -77 22 -102 -10z"/>
<path d="M1328 3210 c-21 -16 -28 -30 -28 -55 0 -50 28 -65 120 -65 93 0 120
15 120 66 0 54 -21 68 -109 72 -66 3 -80 1 -103 -18z"/>
<path d="M1860 3217 c-20 -10 -26 -21 -28 -54 -4 -58 20 -73 118 -73 67 0 79
3 98 23 29 30 28 62 -3 92 -21 22 -33 25 -92 25 -37 0 -79 -6 -93 -13z"/>
<path d="M2590 3212 c-13 -11 -25 -35 -29 -57 -5 -33 -12 -42 -51 -62 -60 -31
-124 -102 -144 -160 -23 -67 -20 -121 10 -181 41 -83 95 -123 279 -208 21 -10
56 -35 77 -56 30 -30 38 -46 38 -74 0 -77 -60 -129 -146 -127 -61 0 -103 25
-140 84 -23 38 -36 44 -79 39 -25 -2 -54 -38 -55 -66 0 -28 49 -103 91 -138
19 -16 53 -37 76 -47 36 -15 43 -23 43 -47 0 -40 33 -72 74 -72 40 0 57 18 65
68 5 31 13 41 54 63 102 55 157 139 157 242 0 115 -69 196 -237 277 -164 79
-206 133 -168 214 19 39 82 76 131 76 50 -1 109 -34 140 -81 24 -35 36 -45 63
-47 73 -7 92 60 41 141 -27 43 -63 71 -149 119 -24 13 -31 24 -31 47 0 20 -8
36 -26 50 -33 26 -55 26 -84 3z"/>
<path d="M1652 3010 c-29 -12 -42 -48 -42 -115 0 -70 13 -103 47 -116 22 -8
35 -7 61 7 l32 17 0 88 c0 83 -1 89 -26 108 -29 23 -38 24 -72 11z"/>
<path d="M366 1938 c-14 -20 -16 -111 -16 -781 l0 -758 25 -24 24 -25 241 0
241 0 24 25 c24 23 25 30 25 150 0 106 3 127 16 132 9 3 68 -11 132 -31 317
-100 669 -199 847 -237 213 -46 320 -45 511 4 403 104 1055 361 1173 463 34
30 36 35 36 95 -1 125 -66 242 -159 285 -88 41 -187 30 -461 -50 -226 -67
-409 -103 -429 -86 -8 6 -19 30 -25 54 -24 95 -118 193 -221 229 -75 27 -199
37 -310 25 -186 -19 -246 0 -356 114 -99 103 -149 128 -277 135 -105 6 -196
-9 -349 -58 -53 -18 -104 -29 -112 -26 -14 6 -16 31 -16 175 0 231 26 212
-298 212 -248 0 -251 0 -266 -22z m416 -130 c12 -20 10 -1275 -2 -1299 -10
-17 -22 -19 -139 -19 -96 0 -131 3 -140 14 -8 9 -10 191 -9 662 l3 648 23 6
c46 11 255 1 264 -12z m726 -314 c15 -9 55 -48 90 -85 112 -121 214 -155 422
-143 162 10 224 6 286 -17 77 -29 134 -98 134 -164 0 -19 -10 -27 -57 -45
-144 -55 -196 -70 -241 -70 -27 0 -178 33 -347 77 -367 94 -365 93 -394 58
-26 -34 -27 -56 -3 -85 18 -22 26 -24 552 -160 180 -47 239 -42 470 43 57 21
133 39 190 46 118 15 219 38 475 109 233 64 328 74 366 36 30 -31 61 -125 46
-142 -31 -37 -312 -159 -633 -275 -211 -76 -315 -109 -472 -148 -152 -39 -202
-43 -297 -29 -92 13 -421 94 -599 146 -189 56 -372 112 -473 145 l-93 31 0
284 0 284 50 25 c85 43 210 83 305 98 65 11 195 0 223 -19z"/>
</g>
</svg>
